<?xml version="1.0" encoding="utf-8"?>
<!-- Generator: Adobe Illustrator 22.1.0, SVG Export Plug-In . SVG Version: 6.00 Build 0)  -->
<svg version="1.1" id="Calque_1" xmlns="http://www.w3.org/2000/svg" xmlns:xlink="http://www.w3.org/1999/xlink" x="0px" y="0px"
	 viewBox="0 0 1024 1024" enable-background="new 0 0 1024 1024" xml:space="preserve">
<path fill="#FFFFFF" d="M163.9,239.9c0-21,1.3-40.6,4-58.3c2.7-17.7,7.8-33.3,15.3-47c12.4-22.6,29.8-40.6,52.7-54
	c22.8-13.7,50.5-20.4,83.3-20.4s60.4,6.7,83.3,20.4s40.3,31.7,52.7,54c7.5,13.7,12.6,29.3,15.3,47s4,37.1,4,58.3v170.6
	c0,21.2-1.3,40.6-4,58.3c-2.7,17.7-7.8,33.3-15.3,47c-12.4,22.6-29.8,40.6-52.7,54c-22.8,13.7-50.5,20.4-83.3,20.4
	s-60.4-6.7-83.3-20.4c-22.8-13.7-40.3-31.7-52.7-54c-7.5-13.7-12.6-29.3-15.3-47c-2.7-17.7-4-37.1-4-58.3V239.9z M268.1,426.9
	c0,19.6,4.6,34.7,13.7,44.3c9.1,9.9,21.5,14.8,37.3,14.8c15.6,0,28.2-4.8,37.3-14.8c9.1-9.9,13.7-24.7,13.7-44.3V223.5
	c0-19.6-4.6-34.7-13.7-44.3c-9.1-9.9-21.5-14.8-37.3-14.8c-15.6,0-28.2,4.8-37.3,14.8c-9.1,9.9-13.7,24.7-13.7,44.3V426.9z"/>
<path fill="#FFFFFF" d="M541.6,239.9c0-21,1.3-40.6,4-58.3c2.7-17.7,7.8-33.3,15.3-47c12.4-22.6,29.8-40.6,52.7-54
	c22.8-13.7,50.5-20.4,83.3-20.4s60.4,6.7,83.3,20.4s40.3,31.7,52.7,54c7.5,13.7,12.6,29.3,15.3,47c2.7,17.7,4,37.1,4,58.3v170.6
	c0,21.2-1.3,40.6-4,58.3c-2.7,17.7-7.8,33.3-15.3,47c-12.4,22.6-29.8,40.6-52.7,54c-22.8,13.7-50.5,20.4-83.3,20.4
	s-60.4-6.7-83.3-20.4c-22.8-13.7-40.3-31.7-52.7-54c-7.5-13.7-12.6-29.3-15.3-47c-2.7-17.7-4-37.1-4-58.3V239.9z M645.8,426.9
	c0,19.6,4.6,34.7,13.7,44.3c9.1,9.9,21.5,14.8,37.3,14.8c15.6,0,28.2-4.8,37.3-14.8c9.1-9.9,13.7-24.7,13.7-44.3V223.5
	c0-19.6-4.6-34.7-13.7-44.3c-9.1-9.9-21.5-14.8-37.3-14.8c-15.6,0-28.2,4.8-37.3,14.8c-9.1,9.9-13.7,24.7-13.7,44.3V426.9z"/>
<path fill="#FFEB00" d="M787.4,620.8c-116.1,137-260,141-277,141c-1.1,0-1.3,0-1.6,0l0,0c-38.1-0.3-73.1-5.6-106.4-16.7
	c-69.6-22.6-126-62.9-167.6-120.1c-7.3-10.2-22-12.6-33-5.9c-11,6.7-13.7,20.4-6.4,30.4c47.3,65.3,111.8,111.5,191.5,137
	c38.4,12.4,78.2,18.5,121.4,19.1h0.3c0.5,0,0.8,0,1.9,0c1.3,0,3.2,0,5.6,0v0.3c0.5,9.9,1.1,19.6,2.7,29c9.9,56.4,61,98.1,120.1,98.1
	c1.3,0,3,0,4.3,0c60.7-2.1,111.5-48.9,116.1-106.4c1.9-23.4,1.6-53.2,1.6-81.1c0-12.4,0-23.9,0.3-34.7c22-17.5,43.8-37.9,64.5-62.6
	c8.1-9.7,6.2-23.4-4-30.9C810.5,609.6,795.5,611.2,787.4,620.8z M712.5,745.2c0,26.9,0.3,55.3-1.6,77.9
	c-2.7,35.7-33.6,64.5-70.1,65.8c-35.7,0.5-69.3-25-75.8-61c-1.3-7.5-1.6-15.6-1.9-23.6l-0.3-3.5c38.4-6.7,92.4-22,149.4-56.7
	C712.5,744.4,712.5,744.7,712.5,745.2z"/>
<g>
</g>
<g>
</g>
<g>
</g>
<g>
</g>
<g>
</g>
<g>
</g>
<g>
</g>
<g>
</g>
<g>
</g>
<g>
</g>
<g>
</g>
</svg>
