<?xml version="1.0" encoding="utf-8"?>
<!-- Generator: Adobe Illustrator 22.1.0, SVG Export Plug-In . SVG Version: 6.00 Build 0)  -->
<svg version="1.1" id="Calque_1" xmlns="http://www.w3.org/2000/svg" xmlns:xlink="http://www.w3.org/1999/xlink" x="0px" y="0px"
	 viewBox="0 0 1354 1024" enable-background="new 0 0 1354 1024" xml:space="preserve">
<g>
	<path fill="#FFFFFF" d="M57.2,323.6h38.8v216.2c0,7.4,1.3,12.3,4,15c2.7,2.7,7.7,4.4,15,5.1v36.5c-8.9,0-16.9-0.7-23.9-2.1
		c-7.1-1.4-13.2-4.1-18.2-8.2c-5.1-3.8-8.9-9.2-11.6-16.1c-2.7-7-4-16.1-4-27.5V323.6z"/>
	<path fill="#FFFFFF" d="M130.1,362.4v-38.8h38.8v38.8H130.1z M130.1,594.2V401.5h38.8v192.7H130.1z"/>
	<path fill="#FFFFFF" d="M319,401.5l-50.2,192.7h-34.2l-50.2-192.7h41l25.8,123.1h0.8l25.8-123.1H319z"/>
	<path fill="#FFFFFF" d="M334.5,594.2V401.5h38.8V422c7.8-7.1,15.6-12.7,23.2-16.7c7.6-4,17-6.1,28.1-6.1v41
		c-3.8-1.5-7.7-2.3-11.8-2.3c-4.1,0-8.4,0.7-13.1,2.1c-4.7,1.4-8.9,3.7-12.7,7c-4.1,3.3-7.4,7.6-9.9,12.9
		c-2.5,5.3-3.8,11.9-3.8,19.8v114.4H334.5z"/>
	<path fill="#FFFFFF" d="M511.2,594.2v-19.8h-0.8c-5.1,7.1-10.2,12.5-15.4,16.3c-5.2,3.8-12.5,5.7-21.9,5.7c-4.6,0-9.2-0.7-13.9-2.1
		c-4.7-1.4-9.2-4-13.5-7.8c-4.3-3.5-7.8-8.7-10.5-15.4c-2.7-6.7-4-15.4-4-26c0-10.9,0.9-20.5,2.7-28.7c1.8-8.2,5.1-15.1,9.9-20.7
		c4.6-5.3,10.8-9.3,18.6-12c7.8-2.7,17.9-4,30-4c1.3,0,2.7,0,4.2,0c1.5,0,2.9,0.1,4.2,0.4c1.3,0.3,2.8,0.4,4.6,0.4
		c1.8,0,3.7,0.1,5.7,0.4v-20.1c0-6.6-1.4-12-4.2-16.3c-2.8-4.3-7.9-6.5-15.2-6.5c-5.1,0-9.7,1.7-13.9,4.9c-4.2,3.3-6.9,8.1-8.2,14.4
		h-37.6c1-17.2,6.8-31.2,17.5-41.8c5.1-5.1,11.1-9.1,18.2-12c7.1-2.9,15.1-4.4,23.9-4.4c8.1,0,15.7,1.3,22.8,3.8
		c7.1,2.5,13.3,6.3,18.6,11.4c5.1,5.1,9.1,11.4,12.2,19c3,7.6,4.6,16.5,4.6,26.6v134.1H511.2z M511.2,511.3
		c-4.3-0.8-7.9-1.1-10.6-1.1c-8.4,0-15.5,2-21.5,5.9c-6,3.9-8.9,11.1-8.9,21.5c0,7.4,1.8,13.3,5.3,17.9c3.5,4.6,8.5,6.8,14.8,6.8
		c6.6,0,11.7-2.1,15.4-6.5c3.7-4.3,5.5-10.4,5.5-18.2V511.3z"/>
	<path fill="#FFFFFF" d="M578.5,594.2V401.5h38.8v18.6h0.8c4-6.1,8.9-11.1,14.6-15c5.7-3.9,13-5.9,21.8-5.9c4.8,0,9.6,0.8,14.4,2.5
		c4.8,1.7,9.1,4.4,12.9,8.2c3.8,3.8,6.8,8.7,9.1,14.6c2.3,6,3.4,13.2,3.4,21.9v147.8h-38.8V460.8c0-7.1-1.7-12.7-4.9-16.7
		c-3.3-4-8-6.1-14.1-6.1c-7.4,0-12.4,2.3-15.2,6.8c-2.8,4.6-4.2,11.2-4.2,19.8v129.6H578.5z"/>
	<path fill="#FFFFFF" d="M722.9,466.1c0-7.8,0.5-15.1,1.5-21.7c1-6.6,2.9-12.4,5.7-17.5c4.6-8.4,11.1-15.1,19.6-20.1
		c8.5-5.1,18.8-7.6,31-7.6s22.5,2.5,31,7.6c8.5,5.1,15,11.8,19.6,20.1c2.8,5.1,4.7,10.9,5.7,17.5c1,6.6,1.5,13.8,1.5,21.7v63.5
		c0,7.9-0.5,15.1-1.5,21.7c-1,6.6-2.9,12.4-5.7,17.5c-4.6,8.4-11.1,15.1-19.6,20.1c-8.5,5.1-18.8,7.6-31,7.6s-22.5-2.5-31-7.6
		c-8.5-5.1-15-11.8-19.6-20.1c-2.8-5.1-4.7-10.9-5.7-17.5c-1-6.6-1.5-13.8-1.5-21.7V466.1z M761.7,535.7c0,7.3,1.7,12.9,5.1,16.5
		c3.4,3.7,8,5.5,13.9,5.5c5.8,0,10.5-1.8,13.9-5.5c3.4-3.7,5.1-9.2,5.1-16.5V460c0-7.3-1.7-12.9-5.1-16.5c-3.4-3.7-8-5.5-13.9-5.5
		c-5.8,0-10.5,1.8-13.9,5.5c-3.4,3.7-5.1,9.2-5.1,16.5V535.7z"/>
	<path fill="#FFFFFF" d="M863.5,466.1c0-7.8,0.5-15.1,1.5-21.7c1-6.6,2.9-12.4,5.7-17.5c4.6-8.4,11.1-15.1,19.6-20.1
		c8.5-5.1,18.8-7.6,31-7.6s22.5,2.5,31,7.6c8.5,5.1,15,11.8,19.6,20.1c2.8,5.1,4.7,10.9,5.7,17.5c1,6.6,1.5,13.8,1.5,21.7v63.5
		c0,7.9-0.5,15.1-1.5,21.7c-1,6.6-2.9,12.4-5.7,17.5c-4.6,8.4-11.1,15.1-19.6,20.1c-8.5,5.1-18.8,7.6-31,7.6s-22.5-2.5-31-7.6
		c-8.5-5.1-15-11.8-19.6-20.1c-2.8-5.1-4.7-10.9-5.7-17.5c-1-6.6-1.5-13.8-1.5-21.7V466.1z M902.3,535.7c0,7.3,1.7,12.9,5.1,16.5
		c3.4,3.7,8,5.5,13.9,5.5c5.8,0,10.5-1.8,13.9-5.5c3.4-3.7,5.1-9.2,5.1-16.5V460c0-7.3-1.7-12.9-5.1-16.5c-3.4-3.7-8-5.5-13.9-5.5
		c-5.8,0-10.5,1.8-13.9,5.5c-3.4,3.7-5.1,9.2-5.1,16.5V535.7z"/>
	<path fill="#FFEB00" d="M1007.5,594.2v-38.8h38.8v38.8H1007.5z"/>
	<path fill="#FFEB00" d="M1078.2,594.2V401.5h38.8V422c7.8-7.1,15.6-12.7,23.2-16.7c7.6-4,17-6.1,28.1-6.1v41
		c-3.8-1.5-7.7-2.3-11.8-2.3c-4.1,0-8.4,0.7-13.1,2.1c-4.7,1.4-8.9,3.7-12.7,7c-4.1,3.3-7.4,7.6-9.9,12.9
		c-2.5,5.3-3.8,11.9-3.8,19.8v114.4H1078.2z"/>
	<path fill="#FFEB00" d="M1295.9,512.5h-76.8v26.2c0,6.1,1.7,10.8,5.1,14.1c3.4,3.3,8,4.9,13.9,4.9c7.3,0,12.2-2.1,14.6-6.5
		c2.4-4.3,3.9-8.6,4.4-12.9h38.8c0,17-5.2,30.7-15.6,41c-5.1,5.3-11.2,9.5-18.2,12.5c-7.1,3-15.1,4.6-23.9,4.6
		c-12.2,0-22.5-2.5-31-7.6c-8.5-5.1-15-11.8-19.6-20.1c-2.8-5.1-4.7-10.9-5.7-17.5c-1-6.6-1.5-13.8-1.5-21.7v-63.5
		c0-7.8,0.5-15.1,1.5-21.7c1-6.6,2.9-12.4,5.7-17.5c4.6-8.4,11.1-15.1,19.6-20.1c8.5-5.1,18.8-7.6,31-7.6c8.9,0,16.9,1.5,24.1,4.6
		c7.2,3,13.4,7.2,18.4,12.5c10.1,11.4,15.2,25.7,15.2,42.9V512.5z M1219.2,482.1h38v-22c0-7.3-1.7-12.9-5.1-16.5
		c-3.4-3.7-8-5.5-13.9-5.5c-5.8,0-10.5,1.8-13.9,5.5c-3.4,3.7-5.1,9.2-5.1,16.5V482.1z"/>
</g>
<path fill="#FFEB00" d="M955,607.9c-43.2,51-96.8,52.5-103.1,52.5c-0.4,0-0.5,0-0.6,0l0,0c-14.2-0.1-27.2-2.1-39.6-6.2
	c-25.9-8.4-46.9-23.4-62.4-44.7c-2.7-3.8-8.2-4.7-12.3-2.2c-4.1,2.5-5.1,7.6-2.4,11.3c17.6,24.3,41.6,41.5,71.3,51
	c14.3,4.6,29.1,6.9,45.2,7.1c0,0,0.1,0,0.1,0c0.2,0,0.3,0,0.7,0c0.5,0,1.2,0,2.1,0v0.1c0.2,3.7,0.4,7.3,1,10.8
	c3.7,21,22.7,36.5,44.7,36.5c0.5,0,1.1,0,1.6,0c22.6-0.8,41.5-18.2,43.2-39.6c0.7-8.7,0.6-19.8,0.6-30.2c0-4.6,0-8.9,0.1-12.9
	c8.2-6.5,16.3-14.1,24-23.3c3-3.6,2.3-8.7-1.5-11.5C963.6,603.7,958,604.3,955,607.9z M927.1,654.2c0,10,0.1,20.6-0.6,29
	c-1,13.3-12.5,24-26.1,24.5c-13.3,0.2-25.8-9.3-28.2-22.7c-0.5-2.8-0.6-5.8-0.7-8.8l-0.1-1.3c14.3-2.5,34.4-8.2,55.6-21.1
	C927.1,653.9,927.1,654,927.1,654.2z"/>
<g>
</g>
<g>
</g>
<g>
</g>
<g>
</g>
<g>
</g>
<g>
</g>
<g>
</g>
<g>
</g>
<g>
</g>
<g>
</g>
<g>
</g>
</svg>
